<?xml version="1.0" encoding="UTF-8" standalone="no"?>
<!DOCTYPE svg PUBLIC "-//W3C//DTD SVG 1.1//EN"
 "http://www.w3.org/Graphics/SVG/1.1/DTD/svg11.dtd">
<!-- Generated by graphviz version 2.38.0 (20140413.2041)
 -->
<!-- Title: controllers_diagram Pages: 1 -->
<svg width="372pt" height="343pt"
 viewBox="0.00 0.00 371.50 343.50" xmlns="http://www.w3.org/2000/svg" xmlns:xlink="http://www.w3.org/1999/xlink">
<g id="graph0" class="graph" transform="scale(1 1) rotate(0) translate(63.5 219.5)">
<title>controllers_diagram</title>
<polygon fill="none" stroke="none" points="-63.5,124 -63.5,-219.5 308,-219.5 308,124 -63.5,124"/>
<!-- _diagram_info -->
<g id="node1" class="node"><title>_diagram_info</title>
<text text-anchor="start" x="98" y="26.4" font-family="Times,serif" font-size="13.00">Controllers diagram</text>
<text text-anchor="start" x="98" y="40.4" font-family="Times,serif" font-size="13.00">Date: Sep 01 2017 &#45; 20:27</text>
<text text-anchor="start" x="98" y="54.4" font-family="Times,serif" font-size="13.00">Migration version: 20170901230411</text>
<text text-anchor="start" x="98" y="68.4" font-family="Times,serif" font-size="13.00">Generated by RailRoady 1.5.3</text>
<text text-anchor="start" x="98" y="82.4" font-family="Times,serif" font-size="13.00">http://railroady.prestonlee.com</text>
</g>
<!-- ApplicationController -->
<g id="node2" class="node"><title>ApplicationController</title>
<path fill="none" stroke="black" d="M102,-16C102,-16 214,-16 214,-16 220,-16 226,-22 226,-28 226,-28 226,-98 226,-98 226,-104 220,-110 214,-110 214,-110 102,-110 102,-110 96,-110 90,-104 90,-98 90,-98 90,-28 90,-28 90,-22 96,-16 102,-16"/>
<text text-anchor="middle" x="158" y="-94.8" font-family="Times,serif" font-size="14.00">ApplicationController</text>
<polyline fill="none" stroke="black" points="90,-87 226,-87 "/>
<polyline fill="none" stroke="black" points="90,-63 226,-63 "/>
<polyline fill="none" stroke="black" points="90,-39 226,-39 "/>
<text text-anchor="start" x="98" y="-23.8" font-family="Times,serif" font-size="14.00">_layout</text>
</g>
<!-- CartsController -->
<g id="node3" class="node"><title>CartsController</title>
<path fill="none" stroke="black" d="M-32.5,-121C-32.5,-121 44.5,-121 44.5,-121 50.5,-121 56.5,-127 56.5,-133 56.5,-133 56.5,-203 56.5,-203 56.5,-209 50.5,-215 44.5,-215 44.5,-215 -32.5,-215 -32.5,-215 -38.5,-215 -44.5,-209 -44.5,-203 -44.5,-203 -44.5,-133 -44.5,-133 -44.5,-127 -38.5,-121 -32.5,-121"/>
<text text-anchor="middle" x="6" y="-199.8" font-family="Times,serif" font-size="14.00">CartsController</text>
<polyline fill="none" stroke="black" points="-44.5,-192 56.5,-192 "/>
<polyline fill="none" stroke="black" points="-44.5,-168 56.5,-168 "/>
<polyline fill="none" stroke="black" points="-44.5,-144 56.5,-144 "/>
<text text-anchor="start" x="-36.5" y="-128.8" font-family="Times,serif" font-size="14.00">_layout</text>
</g>
<!-- ProductsController -->
<g id="node4" class="node"><title>ProductsController</title>
<path fill="none" stroke="black" d="M-47.5,119.5C-47.5,119.5 47.5,119.5 47.5,119.5 53.5,119.5 59.5,113.5 59.5,107.5 59.5,107.5 59.5,-81.5 59.5,-81.5 59.5,-87.5 53.5,-93.5 47.5,-93.5 47.5,-93.5 -47.5,-93.5 -47.5,-93.5 -53.5,-93.5 -59.5,-87.5 -59.5,-81.5 -59.5,-81.5 -59.5,107.5 -59.5,107.5 -59.5,113.5 -53.5,119.5 -47.5,119.5"/>
<text text-anchor="middle" x="0" y="-78.3" font-family="Times,serif" font-size="14.00">ProductsController</text>
<polyline fill="none" stroke="black" points="-59.5,-70.5 59.5,-70.5 "/>
<text text-anchor="start" x="-51.5" y="-55.3" font-family="Times,serif" font-size="14.00">create</text>
<text text-anchor="start" x="-51.5" y="-40.3" font-family="Times,serif" font-size="14.00">destroy</text>
<text text-anchor="start" x="-51.5" y="-25.3" font-family="Times,serif" font-size="14.00">edit</text>
<text text-anchor="start" x="-51.5" y="-10.3" font-family="Times,serif" font-size="14.00">index</text>
<text text-anchor="start" x="-51.5" y="4.7" font-family="Times,serif" font-size="14.00">new</text>
<text text-anchor="start" x="-51.5" y="19.7" font-family="Times,serif" font-size="14.00">show</text>
<text text-anchor="start" x="-51.5" y="34.7" font-family="Times,serif" font-size="14.00">update</text>
<polyline fill="none" stroke="black" points="-59.5,42.5 59.5,42.5 "/>
<polyline fill="none" stroke="black" points="-59.5,66.5 59.5,66.5 "/>
<text text-anchor="start" x="-51.5" y="81.7" font-family="Times,serif" font-size="14.00">_layout</text>
<text text-anchor="start" x="-51.5" y="96.7" font-family="Times,serif" font-size="14.00">product_params</text>
<text text-anchor="start" x="-51.5" y="111.7" font-family="Times,serif" font-size="14.00">set_product</text>
</g>
</g>
</svg>
