<?xml version="1.0" encoding="UTF-8" standalone="no"?>
<!DOCTYPE svg PUBLIC "-//W3C//DTD SVG 1.1//EN"
 "http://www.w3.org/Graphics/SVG/1.1/DTD/svg11.dtd">
<!-- Generated by graphviz version 2.38.0 (20140413.2041)
 -->
<!-- Title: models_diagram Pages: 1 -->
<svg width="528pt" height="374pt"
 viewBox="0.00 0.00 528.00 374.00" xmlns="http://www.w3.org/2000/svg" xmlns:xlink="http://www.w3.org/1999/xlink">
<g id="graph0" class="graph" transform="scale(1 1) rotate(0) translate(4 370)">
<title>models_diagram</title>
<polygon fill="none" stroke="none" points="-4,4 -4,-370 524,-370 524,4 -4,4"/>
<!-- _diagram_info -->
<g id="node1" class="node"><title>_diagram_info</title>
<text text-anchor="start" x="8" y="-351.6" font-family="Times,serif" font-size="13.00">Models diagram</text>
<text text-anchor="start" x="8" y="-337.6" font-family="Times,serif" font-size="13.00">Date: Sep 01 2017 &#45; 20:27</text>
<text text-anchor="start" x="8" y="-323.6" font-family="Times,serif" font-size="13.00">Migration version: 20170901230411</text>
<text text-anchor="start" x="8" y="-309.6" font-family="Times,serif" font-size="13.00">Generated by RailRoady 1.5.3</text>
<text text-anchor="start" x="8" y="-295.6" font-family="Times,serif" font-size="13.00">http://railroady.prestonlee.com</text>
</g>
<!-- ApplicationRecord -->
<g id="node2" class="node"><title>ApplicationRecord</title>
<ellipse fill="none" stroke="black" cx="309" cy="-327" rx="77.1866" ry="18"/>
<text text-anchor="middle" x="309" y="-323.3" font-family="Times,serif" font-size="14.00">ApplicationRecord</text>
</g>
<!-- Order -->
<g id="node3" class="node"><title>Order</title>
<ellipse fill="none" stroke="black" cx="438" cy="-18" rx="31.3957" ry="18"/>
<text text-anchor="middle" x="438" y="-14.3" font-family="Times,serif" font-size="14.00">Order</text>
</g>
<!-- Product -->
<g id="node4" class="node"><title>Product</title>
<ellipse fill="none" stroke="black" cx="447" cy="-234" rx="38.1938" ry="18"/>
<text text-anchor="middle" x="447" y="-230.3" font-family="Times,serif" font-size="14.00">Product</text>
</g>
<!-- Product&#45;&gt;Order -->
<g id="edge1" class="edge"><title>Product&#45;&gt;Order</title>
<path fill="none" stroke="#2698e4" d="M427.515,-210.724C420.928,-201.793 414.387,-191.014 411,-180 396.793,-133.8 413.498,-77.7036 426.233,-45.3999"/>
<ellipse fill="none" stroke="#2698e4" cx="430.06" cy="-214.005" rx="4.00002" ry="4.00002"/>
<polygon fill="#2698e4" stroke="#2698e4" points="426.382,-45.0391 434.346,-37.5017 428.283,-40.4148 430.185,-35.7904 430.185,-35.7904 430.185,-35.7904 428.283,-40.4148 426.023,-34.0791 426.382,-45.0391 426.382,-45.0391"/>
</g>
<!-- User -->
<g id="node6" class="node"><title>User</title>
<ellipse fill="none" stroke="black" cx="447" cy="-162" rx="27.0966" ry="18"/>
<text text-anchor="middle" x="447" y="-158.3" font-family="Times,serif" font-size="14.00">User</text>
</g>
<!-- Product&#45;&gt;User -->
<g id="edge2" class="edge"><title>Product&#45;&gt;User</title>
<path fill="none" stroke="#c1d918" d="M447,-205.665C447,-200.687 447,-195.491 447,-190.507"/>
<polygon fill="#c1d918" stroke="#c1d918" points="447,-205.697 442.5,-215.697 447,-210.697 447,-215.697 447,-215.697 447,-215.697 447,-210.697 451.5,-215.697 447,-205.697 447,-205.697"/>
<polygon fill="#c1d918" stroke="#c1d918" points="447,-190.104 451.5,-180.104 447,-185.104 447,-180.104 447,-180.104 447,-180.104 447,-185.104 442.5,-180.104 447,-190.104 447,-190.104"/>
</g>
<!-- Cart -->
<g id="node7" class="node"><title>Cart</title>
<ellipse fill="none" stroke="black" cx="493" cy="-90" rx="27" ry="18"/>
<text text-anchor="middle" x="493" y="-86.3" font-family="Times,serif" font-size="14.00">Cart</text>
</g>
<!-- Product&#45;&gt;Cart -->
<g id="edge3" class="edge"><title>Product&#45;&gt;Cart</title>
<path fill="none" stroke="#48c98e" d="M466.985,-208.905C473.119,-200.283 479.238,-190.172 483,-180 490.315,-160.222 492.686,-136.422 493.299,-118.411"/>
<polygon fill="#48c98e" stroke="#48c98e" points="466.932,-208.977 457.332,-214.278 463.932,-212.977 460.932,-216.977 460.932,-216.977 460.932,-216.977 463.932,-212.977 464.533,-219.677 466.932,-208.977 466.932,-208.977"/>
<polygon fill="#48c98e" stroke="#48c98e" points="493.301,-118.29 497.98,-108.373 493.391,-113.291 493.481,-108.292 493.481,-108.292 493.481,-108.292 493.391,-113.291 488.981,-108.211 493.301,-118.29 493.301,-118.29"/>
</g>
<!-- Category -->
<g id="node5" class="node"><title>Category</title>
<ellipse fill="none" stroke="black" cx="447" cy="-327" rx="42.7926" ry="18"/>
<text text-anchor="middle" x="447" y="-323.3" font-family="Times,serif" font-size="14.00">Category</text>
</g>
<!-- Category&#45;&gt;Product -->
<g id="edge4" class="edge"><title>Category&#45;&gt;Product</title>
<path fill="none" stroke="#b47702" d="M447,-300.729C447,-288.725 447,-274.362 447,-262.129"/>
<ellipse fill="none" stroke="#b47702" cx="447" cy="-304.884" rx="4" ry="4"/>
<polygon fill="#b47702" stroke="#b47702" points="447,-262.04 451.5,-252.04 447,-257.04 447,-252.04 447,-252.04 447,-252.04 447,-257.04 442.5,-252.04 447,-262.04 447,-262.04"/>
</g>
<!-- User&#45;&gt;Order -->
<g id="edge5" class="edge"><title>User&#45;&gt;Order</title>
<path fill="none" stroke="#bdbf0c" d="M445.388,-135.558C443.796,-110.444 441.37,-72.164 439.736,-46.3932"/>
<ellipse fill="none" stroke="#bdbf0c" cx="445.661" cy="-139.879" rx="4" ry="4"/>
<polygon fill="#bdbf0c" stroke="#bdbf0c" points="439.722,-46.1692 443.58,-35.9046 439.406,-41.1793 439.089,-36.1893 439.089,-36.1893 439.089,-36.1893 439.406,-41.1793 434.598,-36.4739 439.722,-46.1692 439.722,-46.1692"/>
</g>
<!-- User&#45;&gt;Cart -->
<g id="edge6" class="edge"><title>User&#45;&gt;Cart</title>
<path fill="none" stroke="#89fc95" d="M463.091,-136.513C467.543,-129.739 472.375,-122.386 476.831,-115.605"/>
<polygon fill="#89fc95" stroke="#89fc95" points="462.93,-136.759 453.677,-142.645 460.184,-140.937 457.438,-145.116 457.438,-145.116 457.438,-145.116 460.184,-140.937 461.199,-147.587 462.93,-136.759 462.93,-136.759"/>
<polygon fill="#89fc95" stroke="#89fc95" points="477.111,-115.178 486.364,-109.293 479.857,-111 482.603,-106.821 482.603,-106.821 482.603,-106.821 479.857,-111 478.843,-104.35 477.111,-115.178 477.111,-115.178"/>
</g>
<!-- Cart&#45;&gt;Order -->
<g id="edge7" class="edge"><title>Cart&#45;&gt;Order</title>
<path fill="none" stroke="#9dc361" d="M476.108,-67.5007C469.921,-59.6262 462.887,-50.6748 456.562,-42.6244"/>
<ellipse fill="none" stroke="#9dc361" cx="478.595" cy="-70.6658" rx="4.00002" ry="4.00002"/>
<polygon fill="#9dc361" stroke="#9dc361" points="456.47,-42.5072 453.83,-31.8638 453.381,-38.5756 450.292,-34.644 450.292,-34.644 450.292,-34.644 453.381,-38.5756 446.753,-37.4242 456.47,-42.5072 456.47,-42.5072"/>
</g>
</g>
</svg>
