<?xml version="1.0" encoding="UTF-8" standalone="no"?>
<!DOCTYPE svg PUBLIC "-//W3C//DTD SVG 1.1//EN"
 "http://www.w3.org/Graphics/SVG/1.1/DTD/svg11.dtd">
<!-- Generated by graphviz version 2.38.0 (20140413.2041)
 -->
<!-- Title: models_diagram Pages: 1 -->
<svg width="732pt" height="882pt"
 viewBox="0.00 0.00 732.07 882.00" xmlns="http://www.w3.org/2000/svg" xmlns:xlink="http://www.w3.org/1999/xlink">
<g id="graph0" class="graph" transform="scale(1 1) rotate(0) translate(4 878)">
<title>models_diagram</title>
<polygon fill="none" stroke="none" points="-4,4 -4,-878 728.068,-878 728.068,4 -4,4"/>
<!-- _diagram_info -->
<g id="node1" class="node"><title>_diagram_info</title>
<text text-anchor="start" x="8" y="-852.6" font-family="Times,serif" font-size="13.00">Models diagram</text>
<text text-anchor="start" x="8" y="-838.6" font-family="Times,serif" font-size="13.00">Date: Sep 01 2017 &#45; 20:27</text>
<text text-anchor="start" x="8" y="-824.6" font-family="Times,serif" font-size="13.00">Migration version: 20170901230411</text>
<text text-anchor="start" x="8" y="-810.6" font-family="Times,serif" font-size="13.00">Generated by RailRoady 1.5.3</text>
<text text-anchor="start" x="8" y="-796.6" font-family="Times,serif" font-size="13.00">http://railroady.prestonlee.com</text>
</g>
<!-- ApplicationRecord -->
<g id="node2" class="node"><title>ApplicationRecord</title>
<ellipse fill="none" stroke="black" cx="309" cy="-828" rx="77.1866" ry="18"/>
<text text-anchor="middle" x="309" y="-824.3" font-family="Times,serif" font-size="14.00">ApplicationRecord</text>
</g>
<!-- Order -->
<g id="node3" class="node"><title>Order</title>
<path fill="none" stroke="black" d="M342,-0.5C342,-0.5 562,-0.5 562,-0.5 568,-0.5 574,-6.5 574,-12.5 574,-12.5 574,-124.5 574,-124.5 574,-130.5 568,-136.5 562,-136.5 562,-136.5 342,-136.5 342,-136.5 336,-136.5 330,-130.5 330,-124.5 330,-124.5 330,-12.5 330,-12.5 330,-6.5 336,-0.5 342,-0.5"/>
<text text-anchor="middle" x="452" y="-121.3" font-family="Times,serif" font-size="14.00">Order</text>
<polyline fill="none" stroke="black" points="330,-113.5 574,-113.5 "/>
<text text-anchor="start" x="338" y="-98.3" font-family="Times,serif" font-size="14.00">id :bigint</text>
<text text-anchor="start" x="338" y="-83.3" font-family="Times,serif" font-size="14.00">price :integer</text>
<text text-anchor="start" x="338" y="-68.3" font-family="Times,serif" font-size="14.00">product_id :bigint</text>
<text text-anchor="start" x="338" y="-53.3" font-family="Times,serif" font-size="14.00">cart_id :bigint</text>
<text text-anchor="start" x="338" y="-38.3" font-family="Times,serif" font-size="14.00">user_id :bigint</text>
<text text-anchor="start" x="338" y="-23.3" font-family="Times,serif" font-size="14.00">created_at :timestamp without time zone</text>
<text text-anchor="start" x="338" y="-8.3" font-family="Times,serif" font-size="14.00">updated_at :timestamp without time zone</text>
</g>
<!-- Product -->
<g id="node4" class="node"><title>Product</title>
<path fill="none" stroke="black" d="M416,-594.5C416,-594.5 636,-594.5 636,-594.5 642,-594.5 648,-600.5 648,-606.5 648,-606.5 648,-733.5 648,-733.5 648,-739.5 642,-745.5 636,-745.5 636,-745.5 416,-745.5 416,-745.5 410,-745.5 404,-739.5 404,-733.5 404,-733.5 404,-606.5 404,-606.5 404,-600.5 410,-594.5 416,-594.5"/>
<text text-anchor="middle" x="526" y="-730.3" font-family="Times,serif" font-size="14.00">Product</text>
<polyline fill="none" stroke="black" points="404,-722.5 648,-722.5 "/>
<text text-anchor="start" x="412" y="-707.3" font-family="Times,serif" font-size="14.00">id :bigint</text>
<text text-anchor="start" x="412" y="-692.3" font-family="Times,serif" font-size="14.00">name :character varying</text>
<text text-anchor="start" x="412" y="-677.3" font-family="Times,serif" font-size="14.00">stock :integer</text>
<text text-anchor="start" x="412" y="-662.3" font-family="Times,serif" font-size="14.00">photo :character varying</text>
<text text-anchor="start" x="412" y="-647.3" font-family="Times,serif" font-size="14.00">price :integer</text>
<text text-anchor="start" x="412" y="-632.3" font-family="Times,serif" font-size="14.00">category_id :bigint</text>
<text text-anchor="start" x="412" y="-617.3" font-family="Times,serif" font-size="14.00">created_at :timestamp without time zone</text>
<text text-anchor="start" x="412" y="-602.3" font-family="Times,serif" font-size="14.00">updated_at :timestamp without time zone</text>
</g>
<!-- Product&#45;&gt;Order -->
<g id="edge1" class="edge"><title>Product&#45;&gt;Order</title>
<path fill="none" stroke="#8cc166" d="M397.525,-602.556C382.891,-589.743 370.016,-574.932 361,-558 290.225,-425.088 358.271,-246.319 408.734,-146.019"/>
<ellipse fill="none" stroke="#8cc166" cx="400.839" cy="-605.348" rx="4.00002" ry="4.00002"/>
<polygon fill="#8cc166" stroke="#8cc166" points="408.862,-145.768 417.413,-138.902 411.133,-141.313 413.404,-136.859 413.404,-136.859 413.404,-136.859 411.133,-141.313 409.395,-134.815 408.862,-145.768 408.862,-145.768"/>
</g>
<!-- User -->
<g id="node6" class="node"><title>User</title>
<path fill="none" stroke="black" d="M381.5,-331.5C381.5,-331.5 670.5,-331.5 670.5,-331.5 676.5,-331.5 682.5,-337.5 682.5,-343.5 682.5,-343.5 682.5,-545.5 682.5,-545.5 682.5,-551.5 676.5,-557.5 670.5,-557.5 670.5,-557.5 381.5,-557.5 381.5,-557.5 375.5,-557.5 369.5,-551.5 369.5,-545.5 369.5,-545.5 369.5,-343.5 369.5,-343.5 369.5,-337.5 375.5,-331.5 381.5,-331.5"/>
<text text-anchor="middle" x="526" y="-542.3" font-family="Times,serif" font-size="14.00">User</text>
<polyline fill="none" stroke="black" points="369.5,-534.5 682.5,-534.5 "/>
<text text-anchor="start" x="377.5" y="-519.3" font-family="Times,serif" font-size="14.00">id :bigint</text>
<text text-anchor="start" x="377.5" y="-504.3" font-family="Times,serif" font-size="14.00">email :character varying</text>
<text text-anchor="start" x="377.5" y="-489.3" font-family="Times,serif" font-size="14.00">encrypted_password :character varying</text>
<text text-anchor="start" x="377.5" y="-474.3" font-family="Times,serif" font-size="14.00">reset_password_token :character varying</text>
<text text-anchor="start" x="377.5" y="-459.3" font-family="Times,serif" font-size="14.00">reset_password_sent_at :timestamp without time zone</text>
<text text-anchor="start" x="377.5" y="-444.3" font-family="Times,serif" font-size="14.00">remember_created_at :timestamp without time zone</text>
<text text-anchor="start" x="377.5" y="-429.3" font-family="Times,serif" font-size="14.00">sign_in_count :integer</text>
<text text-anchor="start" x="377.5" y="-414.3" font-family="Times,serif" font-size="14.00">current_sign_in_at :timestamp without time zone</text>
<text text-anchor="start" x="377.5" y="-399.3" font-family="Times,serif" font-size="14.00">last_sign_in_at :timestamp without time zone</text>
<text text-anchor="start" x="377.5" y="-384.3" font-family="Times,serif" font-size="14.00">current_sign_in_ip :inet</text>
<text text-anchor="start" x="377.5" y="-369.3" font-family="Times,serif" font-size="14.00">last_sign_in_ip :inet</text>
<text text-anchor="start" x="377.5" y="-354.3" font-family="Times,serif" font-size="14.00">created_at :timestamp without time zone</text>
<text text-anchor="start" x="377.5" y="-339.3" font-family="Times,serif" font-size="14.00">updated_at :timestamp without time zone</text>
</g>
<!-- Product&#45;&gt;User -->
<g id="edge2" class="edge"><title>Product&#45;&gt;User</title>
<path fill="none" stroke="#f2b4fe" d="M526,-584.176C526,-578.739 526,-573.212 526,-567.65"/>
<polygon fill="#f2b4fe" stroke="#f2b4fe" points="526,-584.267 521.5,-594.267 526,-589.267 526,-594.267 526,-594.267 526,-594.267 526,-589.267 530.5,-594.267 526,-584.267 526,-584.267"/>
<polygon fill="#f2b4fe" stroke="#f2b4fe" points="526,-567.614 530.5,-557.614 526,-562.614 526,-557.614 526,-557.614 526,-557.614 526,-562.614 521.5,-557.614 526,-567.614 526,-567.614"/>
</g>
<!-- Cart -->
<g id="node7" class="node"><title>Cart</title>
<path fill="none" stroke="black" d="M492,-173.5C492,-173.5 712,-173.5 712,-173.5 718,-173.5 724,-179.5 724,-185.5 724,-185.5 724,-282.5 724,-282.5 724,-288.5 718,-294.5 712,-294.5 712,-294.5 492,-294.5 492,-294.5 486,-294.5 480,-288.5 480,-282.5 480,-282.5 480,-185.5 480,-185.5 480,-179.5 486,-173.5 492,-173.5"/>
<text text-anchor="middle" x="602" y="-279.3" font-family="Times,serif" font-size="14.00">Cart</text>
<polyline fill="none" stroke="black" points="480,-271.5 724,-271.5 "/>
<text text-anchor="start" x="488" y="-256.3" font-family="Times,serif" font-size="14.00">id :bigint</text>
<text text-anchor="start" x="488" y="-241.3" font-family="Times,serif" font-size="14.00">TotalPrice :character varying</text>
<text text-anchor="start" x="488" y="-226.3" font-family="Times,serif" font-size="14.00">open :character varying</text>
<text text-anchor="start" x="488" y="-211.3" font-family="Times,serif" font-size="14.00">user_id :bigint</text>
<text text-anchor="start" x="488" y="-196.3" font-family="Times,serif" font-size="14.00">created_at :timestamp without time zone</text>
<text text-anchor="start" x="488" y="-181.3" font-family="Times,serif" font-size="14.00">updated_at :timestamp without time zone</text>
</g>
<!-- Product&#45;&gt;Cart -->
<g id="edge3" class="edge"><title>Product&#45;&gt;Cart</title>
<path fill="none" stroke="#c956b3" d="M655.746,-602.221C670.262,-589.493 683.026,-574.795 692,-558 739.543,-469.016 729.101,-424.82 692,-331 688.076,-321.078 682.589,-311.581 676.239,-302.685"/>
<polygon fill="#c956b3" stroke="#c956b3" points="655.676,-602.28 645.119,-605.246 651.841,-605.488 648.007,-608.697 648.007,-608.697 648.007,-608.697 651.841,-605.488 650.895,-612.148 655.676,-602.28 655.676,-602.28"/>
<polygon fill="#c956b3" stroke="#c956b3" points="676.221,-302.661 673.773,-291.972 673.203,-298.674 670.185,-294.688 670.185,-294.688 670.185,-294.688 673.203,-298.674 666.597,-297.404 676.221,-302.661 676.221,-302.661"/>
</g>
<!-- Category -->
<g id="node5" class="node"><title>Category</title>
<path fill="none" stroke="black" d="M416,-782.5C416,-782.5 636,-782.5 636,-782.5 642,-782.5 648,-788.5 648,-794.5 648,-794.5 648,-861.5 648,-861.5 648,-867.5 642,-873.5 636,-873.5 636,-873.5 416,-873.5 416,-873.5 410,-873.5 404,-867.5 404,-861.5 404,-861.5 404,-794.5 404,-794.5 404,-788.5 410,-782.5 416,-782.5"/>
<text text-anchor="middle" x="526" y="-858.3" font-family="Times,serif" font-size="14.00">Category</text>
<polyline fill="none" stroke="black" points="404,-850.5 648,-850.5 "/>
<text text-anchor="start" x="412" y="-835.3" font-family="Times,serif" font-size="14.00">id :bigint</text>
<text text-anchor="start" x="412" y="-820.3" font-family="Times,serif" font-size="14.00">name :character varying</text>
<text text-anchor="start" x="412" y="-805.3" font-family="Times,serif" font-size="14.00">created_at :timestamp without time zone</text>
<text text-anchor="start" x="412" y="-790.3" font-family="Times,serif" font-size="14.00">updated_at :timestamp without time zone</text>
</g>
<!-- Category&#45;&gt;Product -->
<g id="edge4" class="edge"><title>Category&#45;&gt;Product</title>
<path fill="none" stroke="#06afa2" d="M526,-774.08C526,-768.236 526,-762.182 526,-756.069"/>
<ellipse fill="none" stroke="#06afa2" cx="526" cy="-778.297" rx="4" ry="4"/>
<polygon fill="#06afa2" stroke="#06afa2" points="526,-755.754 530.5,-745.754 526,-750.754 526,-745.754 526,-745.754 526,-745.754 526,-750.754 521.5,-745.754 526,-755.754 526,-755.754"/>
</g>
<!-- User&#45;&gt;Order -->
<g id="edge5" class="edge"><title>User&#45;&gt;Order</title>
<path fill="none" stroke="#504241" d="M478.513,-323.659C475.66,-314.053 473.101,-304.422 471,-295 460.172,-246.44 455.408,-190.743 453.357,-146.852"/>
<ellipse fill="none" stroke="#504241" cx="479.693" cy="-327.527" rx="4.00001" ry="4.00001"/>
<polygon fill="#504241" stroke="#504241" points="453.356,-146.81 457.422,-136.626 453.141,-141.815 452.926,-136.819 452.926,-136.819 452.926,-136.819 453.141,-141.815 448.43,-137.013 453.356,-146.81 453.356,-146.81"/>
</g>
<!-- User&#45;&gt;Cart -->
<g id="edge6" class="edge"><title>User&#45;&gt;Cart</title>
<path fill="none" stroke="#421c5f" d="M570.329,-321.887C572.519,-315.88 574.679,-309.952 576.781,-304.186"/>
<polygon fill="#421c5f" stroke="#421c5f" points="570.317,-321.921 562.664,-329.775 568.604,-326.618 566.892,-331.316 566.892,-331.316 566.892,-331.316 568.604,-326.618 571.12,-332.857 570.317,-321.921 570.317,-321.921"/>
<polygon fill="#421c5f" stroke="#421c5f" points="576.832,-304.046 584.485,-296.192 578.544,-299.348 580.257,-294.651 580.257,-294.651 580.257,-294.651 578.544,-299.348 576.029,-293.11 576.832,-304.046 576.832,-304.046"/>
</g>
<!-- Cart&#45;&gt;Order -->
<g id="edge7" class="edge"><title>Cart&#45;&gt;Order</title>
<path fill="none" stroke="#e47600" d="M541.344,-166.885C534.482,-159.406 527.454,-151.745 520.501,-144.166"/>
<ellipse fill="none" stroke="#e47600" cx="544.293" cy="-170.1" rx="4.00002" ry="4.00002"/>
<polygon fill="#e47600" stroke="#e47600" points="520.343,-143.993 516.898,-133.583 516.962,-140.309 513.582,-136.625 513.582,-136.625 513.582,-136.625 516.962,-140.309 510.266,-139.667 520.343,-143.993 520.343,-143.993"/>
</g>
</g>
</svg>
